Coordinates
version=1
nRows=14
nColumns=36
inDegrees=yes

Units are S.I. units (second, meters, Newtons, ...)
If the header above contains a line with 'inDegrees', this indicates whether rotational values are in degrees (yes) or radians (no).

endheader
time	pelvis_tilt	pelvis_list	pelvis_rotation	pelvis_tx	pelvis_ty	pelvis_tz	hip_flexion_r	hip_adduction_r	hip_rotation_r	knee_angle_r	knee_angle_r_beta	ankle_angle_r	subtalar_angle_r	mtp_angle_r	hip_flexion_l	hip_adduction_l	hip_rotation_l	knee_angle_l	knee_angle_l_beta	ankle_angle_l	subtalar_angle_l	mtp_angle_l	lumbar_extension	lumbar_bending	lumbar_rotation	arm_flex_r	arm_add_r	arm_rot_r	elbow_flex_r	pro_sup_r	arm_flex_l	arm_add_l	arm_rot_l	elbow_flex_l	pro_sup_l
      6.53333330	      0.05447964	      0.61956144	      2.83962036	      1.14183742	      0.59363643	      0.12068277	     61.63041576	     -8.90935721	     -0.07129859	    102.68250216	      1.79214775	     44.61749590	     -3.17879552	     -7.49999987	     60.60759069	    -11.22317509	      4.43098119	    101.75167635	      1.77590177	     36.77521788	    -16.46179721	     -7.49999987	    -49.46150573	      0.51720509	      2.29675103	     59.56175153	      6.53127471	     24.37867372	     61.03134858	     91.39556749	     62.99798177	      1.46189673	     32.56757635	    108.26698944	     81.60785803
      6.55000000	     -0.71031581	      0.46063155	      3.46335296	      1.13972541	      0.58539010	      0.12053307	     63.29244580	     -9.23034221	     -0.23506835	    103.83820072	      1.81231849	     44.99831496	     -3.21467732	     -7.49999987	     62.73761777	    -11.51523928	      4.66109230	    103.25695316	      1.80217381	     37.04785974	    -15.96194219	     -7.49999987	    -49.34445897	      0.61353798	      1.45536604	     60.60821979	      7.77398085	     24.73888471	     61.07400427	     91.29517281	     63.09419647	      1.62765135	     33.67814694	    105.51639277	     81.37054924
      6.56666670	     -1.31759770	      0.30068427	      3.94828870	      1.14165354	      0.58414196	      0.11999795	     64.22619389	     -9.46072581	     -0.43393656	    104.39901383	      1.82210653	     45.07860554	     -3.42171977	     -7.49999987	     63.85811855	    -11.58229386	      4.84117113	    103.84835387	      1.81249570	     37.21094235	    -15.49125604	     -7.49999987	    -49.04015840	      0.76789215	      0.75952079	     61.17976505	      8.47165893	     25.05042898	     61.10009719	     91.06611741	     62.73411056	      1.30801223	     34.35470484	    102.94113819	     81.01299945
      6.58333330	     -1.98721737	      0.33384579	      4.15717672	      1.13568550	      0.58466377	      0.11858812	     65.28272293	     -9.51006526	     -0.31496650	    104.41624011	      1.82240718	     44.59554710	     -4.05875681	     -7.49999987	     64.72684745	    -11.40379546	      4.58265090	    103.76464486	      1.81103470	     37.65553141	    -14.90215813	     -7.49999987	    -48.59961071	      0.63439795	      0.44264189	     62.28215170	      8.45230773	     25.58362924	     60.35562801	     91.50246609	     62.39821824	      1.46044927	     33.80515757	     99.66066521	     80.67478739
      6.60000000	     -2.18994130	      0.53738735	      4.22528032	      1.13548241	      0.59057625	      0.11908711	     65.39924645	     -9.49950235	     -0.11732185	    103.78406691	      1.81137368	     43.72218911	     -4.72635529	     -7.49999987	     64.47792921	    -11.19427858	      4.09471036	    102.85124779	      1.79509291	     36.93122544	    -15.30370785	     -7.49999987	    -48.68846974	      0.33952263	      0.33122688	     62.58933714	      8.18035078	     25.76395089	     60.05438597	     90.53944032	     61.27230364	      1.59121094	     32.64346705	     96.55184696	     79.33103968
      6.61666670	     -2.19800095	      0.74478627	      4.28822071	      1.13132766	      0.60029893	      0.12034285	     64.70499197	     -9.23494451	     -0.00921259	    102.16330345	      1.78308602	     42.47653712	     -5.61521751	     -7.49999987	     63.49700236	    -10.92241149	      3.53965739	    101.14601680	      1.76533102	     35.65791898	    -15.98815003	     -7.49999987	    -49.12505798	      0.09947314	      0.28389108	     62.87721444	      7.87156603	     25.70451435	     59.27589966	     90.74304972	     59.67564088	      1.65122687	     31.17939763	     93.66465725	     78.54417394
      6.63333330	     -2.02719719	      0.87945120	      4.36608781	      1.12692495	      0.60793513	      0.12169984	     63.77073225	     -9.01276960	     -0.07123195	    100.37995777	      1.75196077	     41.31250789	     -6.22631619	     -7.49999987	     62.58125983	    -10.69539742	      3.25392136	     99.33005430	      1.73363649	     33.85634492	    -17.01872871	     -7.49999987	    -49.54488576	     -0.17535104	      0.50199823	     63.35524275	      7.05488194	     25.66925707	     57.98130182	     88.72412143	     58.33665348	      1.74410538	     29.99587885	     90.48550810	     74.68005343
      6.65000000	     -1.52527781	      0.95576876	      4.50251275	      1.12140501	      0.61696233	      0.12374283	     62.45443915	     -8.61938727	     -0.24130945	     98.39538538	      1.71732344	     39.89897038	     -7.25683048	     -7.49999987	     61.12754614	    -10.41372682	      3.12911513	     97.24991668	      1.69733124	     32.48480533	    -17.67558616	     -7.49999987	    -50.15134331	     -0.33693310	      0.61113954	     63.63829326	      6.35191376	     25.09872718	     56.49763246	     88.67473087	     57.24201556	      1.49727817	     28.09041827	     87.86419205	     73.59598458
      6.66666670	     -1.10406435	      0.91175547	      4.74374943	      1.12421289	      0.62451649	      0.12339178	     60.79521167	     -8.50738267	     -0.56323766	     96.68970150	      1.68755364	     38.85611298	     -8.27670293	     -7.49999987	     59.77268924	    -10.30389317	      3.14357140	     95.31897361	      1.66362993	     31.66309316	    -17.78273821	     -7.49999987	    -50.10170719	     -0.28325994	      1.00244971	     62.46226261	      5.32973289	     24.14773745	     55.48138534	     86.62518969	     55.48623479	      1.06458134	     26.53290207	     85.39147265	     71.55309466
      6.68333330	     -0.24596274	      0.76663901	      5.13409131	      1.12887198	      0.64670718	      0.12744070	     57.47438538	     -8.04738569	     -1.21920981	     93.45751179	      1.63114129	     37.73411619	     -9.59133228	     -7.49999987	     56.73206007	    -10.44370087	      3.02880427	     91.99360084	      1.60559123	     30.57445714	    -17.41179760	     -7.49999987	    -50.50673039	     -0.17128708	      1.13816574	     60.42634755	      4.71367245	     23.23387680	     53.29383386	     86.52920263	     53.19344092	      0.03933105	     24.87512270	     82.89548809	     70.26112241
      6.70000000	      1.07860443	      0.65001548	      5.55631977	      1.14220401	      0.66556845	      0.12776434	     52.49362067	     -7.67723952	     -2.16278273	     89.63845306	      1.56448614	     37.26903579	    -10.25782823	     -7.49999987	     52.54244263	    -10.83500011	      2.74806461	     88.51790084	      1.54492882	     29.43384216	    -16.71602976	     -7.49999987	    -50.67291803	     -0.00511189	      1.45006213	     56.98790637	      4.19904785	     21.43040198	     50.53981405	     86.62396272	     50.02385638	     -1.08730942	     24.51843442	     80.28968577	     57.71539214
      6.71666670	      2.61753502	      0.44377522	      6.12252416	      1.14421803	      0.68356771	      0.13069376	     47.11200096	     -7.11658590	     -3.46130306	     85.29935466	      1.48875459	     36.36715564	    -11.30113994	     -7.49999987	     47.95712824	    -11.28868995	      2.39717574	     84.44721680	      1.47388198	     28.62962576	    -16.11322906	     -7.49999987	    -51.12448162	      0.19289508	      1.57577518	     53.15822298	      3.39841177	     20.51260833	     47.83456450	     86.47504708	     47.10376282	     -2.32083251	     23.31363283	     77.37684874	     57.42498913
      6.73333330	      4.15547872	      0.32090540	      6.47208538	      1.14681230	      0.69821323	      0.12959665	     42.31007744	     -6.68862672	     -4.44603810	     81.20057525	      1.41721739	     35.78223121	    -11.33763507	     -7.49999987	     43.60212641	    -11.73732189	      1.92208248	     80.73665904	      1.40912053	     28.33237769	    -15.32054128	     -7.49999987	    -51.17607838	      0.28860604	      2.23868688	     49.55467946	      2.28730125	     18.41167509	     44.29370533	     84.65317973	     44.29615307	     -3.01607473	     22.09719132	     73.74660696	     57.40170950
      6.75000000	      5.14706776	      0.47178728	      6.36988966	      1.14667976	      0.71930085	      0.12652676	     38.51686036	     -6.49767080	     -4.82692899	     77.01979622	      1.34424903	     34.25325214	    -11.63184789	     -7.49999987	     39.58830795	    -11.68961192	      0.79743067	     76.49085316	      1.33501724	     28.04823264	    -14.63032456	     -7.49999987	    -50.51834941	      0.19512524	      2.45521793	     46.69632056	      1.42014032	     17.27987362	     38.44892279	     84.69090024	     41.84642575	     -3.87711408	     20.62671623	     68.46124135	     56.77858257
